<?xml version="1.0" encoding="UTF-8" standalone="no"?><svg
   xmlns:dc="http://purl.org/dc/elements/1.1/"
   xmlns:cc="http://creativecommons.org/ns#"
   xmlns:rdf="http://www.w3.org/1999/02/22-rdf-syntax-ns#"
   xmlns:svg="http://www.w3.org/2000/svg"
   xmlns="http://www.w3.org/2000/svg"
   xmlns:inkscape="http://www.inkscape.org/namespaces/inkscape"
   version="1.1"
   width="1027.2413"
   height="1027.2413"
   id="svg2"
   xml:space="preserve"><metadata
     id="metadata8"><rdf:RDF><cc:Work
         rdf:about=""><dc:format>image/svg+xml</dc:format><dc:type
           rdf:resource="http://purl.org/dc/dcmitype/StillImage" /></cc:Work></rdf:RDF></metadata><defs
     id="defs6"><clipPath
       id="clipPath16"><path
         d="m 0,821.793 4081,0 L 4081,0 0,0 0,821.793 z"
         inkscape:connector-curvature="0"
         id="path18" /></clipPath></defs><g
     transform="matrix(1.25,0,0,-1.25,0,1027.2413)"
     id="g10"><g
       id="g12"><g
         clip-path="url(#clipPath16)"
         id="g14"><g
           transform="translate(299.4844,204.8584)"
           id="g28"><path
             d="m 0,0 -95.107,94.261 118.623,118.707 191.536,0 L 0,0 z M 478.994,616.935 308.539,444.368 286.236,466.61 221.086,400.955 c 0,0 -12.49,12.23 -24.482,24.066 -11.987,11.839 -27.975,16.61 -45.833,-0.111 C 42.731,323.761 -140.64,132.841 -146.586,127.611 c -6.764,-5.961 -15.942,-9.529 -23.892,-1.593 -4.282,4.27 -10.046,9.776 -17.646,16.608 -21.708,19.511 -42.911,-8.402 -42.911,-8.402 l -27.513,-27.137 110.003,-109.505 -33.012,-32.596 -51.816,51.013 c -25.457,22.882 -50.322,-9.856 -50.322,-9.856 l -15.295,-14.852 197.81,-196.149 15.534,15.66 c 0,0 34.126,23.323 3.051,56.756 l -45.478,44.773 32.716,32.303 109.944,-109.447 27.716,27.827 c 0,0 29.102,19.883 2.602,48.393 -4.72,5.075 -6.09,5.947 -12.358,12.772 -9.079,9.881 2.358,23.1 2.358,23.1 0,0 287.531,284.525 296.822,296.804 9.291,12.28 12.277,34.315 -3.874,50.714 -16.151,16.4 -20.231,19.849 -20.231,19.849 l 65.15,65.666 -23.064,23 129.286,130.365 0,83.258 z"
             inkscape:connector-curvature="0"
             id="path30"
             style="fill:#000000;fill-opacity:1;fill-rule:nonzero;stroke:none" /></g></g></g></g></svg>