<?xml version="1.0" encoding="UTF-8" standalone="no"?><svg
   xmlns:dc="http://purl.org/dc/elements/1.1/"
   xmlns:cc="http://creativecommons.org/ns#"
   xmlns:rdf="http://www.w3.org/1999/02/22-rdf-syntax-ns#"
   xmlns:svg="http://www.w3.org/2000/svg"
   xmlns="http://www.w3.org/2000/svg"
   xmlns:inkscape="http://www.inkscape.org/namespaces/inkscape"
   version="1.1"
   width="5101.25"
   height="1027.2413"
   id="svg2"
   viewBox="0 0 5101 1027"
   xml:space="preserve"><metadata
     id="metadata8"><rdf:RDF><cc:Work
         rdf:about=""><dc:format>image/svg+xml</dc:format><dc:type
           rdf:resource="http://purl.org/dc/dcmitype/StillImage" /></cc:Work></rdf:RDF></metadata><defs
     id="defs6"><clipPath
       id="clipPath16"><path
         d="m 0,821.793 4081,0 L 4081,0 0,0 0,821.793 z"
         inkscape:connector-curvature="0"
         id="path18" /></clipPath></defs><g
     transform="matrix(1.25,0,0,-1.25,0,1027.2413)"
     id="g10"><g
       id="g12"><g
         clip-path="url(#clipPath16)"
         id="g14"><g
           transform="translate(3962.0098,411.8428)"
           id="g20"><path
             d="m 0,0 0,62.587 -20.898,0 0,12.819 57.092,0 0,-12.819 -20.898,0 L 15.296,0 0,0 z m 101.365,0 0,49.768 -19.39,-36.626 -19.174,36.626 0,-49.768 -14.22,0 0,75.406 16.157,0 17.452,-33.718 17.453,33.718 15.619,0 0,-75.406 -13.897,0 z m -443.201,-76.504 c 0,-39.059 -8.955,-64.104 -26.873,-81.841 -9.803,-9.712 -19.654,-15.281 -35.969,-15.281 -16.314,0 -26.166,5.569 -35.968,15.281 -17.917,17.737 -26.874,42.782 -26.874,81.841 l 0,3.398 c 0,39.058 8.957,61.498 26.874,79.233 9.802,9.714 19.654,15.281 35.968,15.281 16.315,0 26.166,-5.567 35.969,-15.281 17.918,-17.735 26.873,-40.175 26.873,-79.233 l 0,-3.398 z m -186.145,-8.161 c 0,-27.105 4.126,-50.132 12.386,-69.074 8.253,-18.947 19.525,-34.391 33.799,-46.338 11.944,-10 25.657,-17.746 41.128,-23.252 0,0 12.768,-5.252 35.99,-5.252 23.225,0 35.992,5.252 35.992,5.252 15.469,5.506 29.183,13.252 41.126,23.252 14.277,11.947 25.547,27.391 33.799,46.338 8.261,18.942 12.387,41.969 12.387,69.074 l 0,16.155 c 0,27.105 -4.126,50.132 -12.387,69.074 -8.252,18.947 -19.522,34.392 -33.799,46.338 -11.943,10 -25.657,17.746 -41.127,23.252 0,0 -12.766,5.252 -35.991,5.252 -23.224,0 -35.99,-5.252 -35.99,-5.252 -15.471,-5.506 -29.184,-13.252 -41.128,-23.252 -14.274,-11.946 -25.546,-27.391 -33.799,-46.338 -8.26,-18.942 -12.386,-41.969 -12.386,-69.074 l 0,-16.155 z m 340.149,13.114 50.385,0 c 13.711,0 24.49,4.759 32.33,14.278 7.833,9.513 11.756,21.834 11.756,36.948 0,17.352 -4.271,30.087 -12.805,38.209 -8.543,8.115 -19.25,12.177 -32.121,12.177 l -49.545,0 0,-101.612 z m 88.594,-151.991 c -0.84,15.115 -2.1,28.406 -3.78,39.887 -1.679,11.474 -3.779,21.479 -6.298,30.021 -2.52,8.535 -5.531,15.954 -9.027,22.253 -3.503,6.298 -7.493,11.967 -11.967,17.005 l -57.522,0 0,-109.166 -59.622,0 0,298.948 107.487,0 c 14.277,0 27.711,-2.034 40.309,-6.088 12.595,-4.061 23.578,-10.077 32.96,-18.054 9.374,-7.979 16.722,-17.917 22.042,-29.811 5.314,-11.9 7.977,-25.823 7.977,-41.778 0,-15.68 -3.987,-30.584 -11.966,-44.716 -7.977,-14.138 -19.103,-25.547 -33.379,-34.22 4.755,-3.923 9.513,-8.541 14.276,-13.855 4.756,-5.322 9.092,-12.597 13.016,-21.834 3.917,-9.237 7.275,-20.928 10.076,-35.059 2.795,-14.137 4.757,-31.982 5.878,-53.533 l -60.46,0 z m -584.883,0 0,243.945 -81.455,0 0,49.965 222.531,0 0,-49.965 -81.455,0 0,-243.945 -59.621,0 z m -104.546,0 c -6.718,-1.397 -14.485,-2.586 -23.302,-3.569 -8.818,-0.978 -17.708,-1.47 -26.663,-1.47 -21.833,0 -42.406,2.663 -61.721,7.977 -19.313,5.314 -36.109,13.711 -50.384,25.193 -14.276,11.474 -25.547,26.307 -33.8,44.507 -8.26,18.192 -12.386,40.307 -12.386,66.339 0,27.148 4.126,50.732 12.386,70.748 8.253,20.01 19.524,36.667 33.8,49.964 14.275,13.292 30.998,23.16 50.175,29.602 19.169,6.436 39.533,9.657 61.09,9.657 8.955,0 17.701,-0.492 26.243,-1.469 8.535,-0.984 16.165,-2.172 22.882,-3.569 l 0,-50.385 c -5.878,1.68 -12.32,3.004 -19.313,3.99 -7,0.976 -15.399,1.468 -25.193,1.468 -31.911,0 -56.827,-8.679 -74.737,-26.032 -17.917,-17.359 -26.872,-44.65 -26.872,-81.875 0,-33.59 8.955,-58.014 26.872,-73.267 17.91,-15.259 43.103,-22.883 75.577,-22.883 9.794,0 18.329,0.485 25.613,1.47 7.275,0.976 13.855,2.308 19.733,3.988 l 0,-50.384 z m -438.76,0 0,293.91 195.659,0 0,-49.965 -136.037,0 0,-34.849 132.259,0 0,-47.446 -132.259,0 0,-111.686 136.877,0 0,-49.964 -196.499,0 z m -107.481,293.91 59.623,0 0,-204.898 c 0,-30.231 -8.188,-53.468 -24.564,-69.699 -16.375,-16.237 -41.356,-24.352 -74.947,-24.352 -9.237,0 -17.845,0.563 -25.821,1.68 -7.978,1.122 -14.349,2.381 -19.105,3.778 l 0,49.965 c 5.878,-1.68 12.104,-3.012 18.685,-3.988 6.573,-0.985 14.623,-1.47 24.142,-1.47 15.116,0 25.887,3.635 32.331,10.917 6.435,7.275 9.656,16.375 9.656,27.292 l 0,210.775 z m -165.007,-293.91 -117.145,193.98 0,-193.98 -53.743,0 0,293.91 60.461,0 106.648,-180.125 0,180.125 52.485,0 0,-293.91 -48.706,0 z m -1504.818,293.91 59.622,0 0,-293.91 -59.622,0 0,293.91 z m 882.158,-293.91 0,293.91 195.659,0 0,-49.965 -136.038,0 0,-34.849 132.261,0 0,-47.446 -132.261,0 0,-111.686 136.878,0 0,-49.964 -196.499,0 z m -143.593,0 c -14.558,0 -26.596,1.396 -36.109,4.198 -9.52,2.794 -17.077,7.066 -22.673,12.807 -5.603,5.733 -9.519,12.805 -11.757,21.203 -2.243,8.397 -3.358,18.191 -3.358,29.391 l 0,226.311 59.202,0 0,-220.852 c 0,-7.284 1.679,-12.951 5.039,-17.005 3.358,-4.062 8.816,-6.089 16.374,-6.089 l 104.548,0 0,-49.964 -111.266,0 z m -261.58,148.634 50.386,0 c 13.711,0 24.49,4.757 32.329,14.275 7.834,9.514 11.757,22.392 11.757,38.628 0,17.354 -4.27,30.508 -12.807,39.469 -8.541,8.955 -19.248,13.436 -32.119,13.436 l -49.546,0 0,-105.808 z m -59.62,-148.634 0,299.788 107.488,0 c 14.276,0 27.712,-2.1 40.308,-6.298 12.595,-4.199 23.578,-10.497 32.96,-18.894 9.375,-8.398 16.722,-18.684 22.043,-30.861 5.314,-12.176 7.977,-26.242 7.977,-42.198 0,-12.595 -2.381,-24.771 -7.137,-36.528 -4.763,-11.757 -11.546,-22.254 -20.364,-31.489 -8.817,-9.239 -19.386,-16.586 -31.7,-22.044 -12.321,-5.459 -26.177,-8.188 -41.567,-8.188 l -50.385,0 0,-103.288 -59.621,0 z m -102.445,0 0,193.98 -75.576,-142.756 -74.737,142.756 0,-193.98 -55.423,0 0,293.91 62.981,0 68.019,-131.421 68.02,131.421 60.881,0 0,-293.91 -54.165,0 z m 908.504,293.91 59.621,0 0,-293.91 -59.621,0 0,293.91 z m -1464.406,-243.526 c 8.955,-2.243 18.96,-3.779 30.021,-4.618 11.054,-0.84 22.882,-1.26 35.479,-1.26 27.148,0 47.583,3.005 61.302,9.027 13.711,6.016 20.572,17.005 20.572,32.959 0,6.719 -2.033,12.453 -6.087,17.216 -4.061,4.756 -9.309,8.954 -15.745,12.596 -6.718,3.634 -14.42,6.993 -23.094,10.077 -8.678,3.077 -17.633,6.299 -26.871,9.657 -9.237,3.358 -18.264,7.066 -27.082,11.126 -8.817,4.055 -16.729,8.884 -23.722,14.486 -7.558,6.154 -13.646,13.436 -18.265,21.833 -4.618,8.398 -6.928,18.474 -6.928,30.231 0,14.552 3.286,27.22 9.867,37.999 6.574,10.771 15.601,19.662 27.081,26.661 11.476,6.994 24.911,12.177 40.309,15.536 15.391,3.359 32.047,5.038 49.965,5.038 9.794,0 19.379,-0.354 28.761,-1.05 9.375,-0.702 18.821,-2.033 28.341,-3.988 l 0,-49.965 c -17.918,3.634 -36.253,5.458 -55.003,5.458 -22.673,0 -40.727,-2.454 -54.164,-7.347 -13.435,-4.902 -20.154,-13.37 -20.154,-25.403 0,-7.282 3.077,-13.298 9.237,-18.053 6.155,-4.764 13.995,-9.238 23.514,-13.437 6.717,-3.084 13.855,-6.022 21.413,-8.817 7.558,-2.802 15.253,-5.813 23.093,-9.028 7.833,-3.221 15.391,-6.717 22.673,-10.497 7.276,-3.779 14.132,-8.049 20.574,-12.806 8.954,-6.717 16.02,-14.767 21.203,-24.142 5.177,-9.382 7.769,-20.784 7.769,-34.221 0,-19.595 -4.409,-35.34 -13.227,-47.234 -8.817,-11.901 -19.944,-21.066 -33.381,-27.502 -13.435,-6.443 -28.275,-10.707 -44.506,-12.806 -16.236,-2.099 -31.91,-3.149 -47.025,-3.149 -10.641,0 -21.834,0.353 -33.59,1.05 -11.756,0.702 -22.535,2.033 -32.33,3.989 l 0,50.384 z"
             inkscape:connector-curvature="0"
             id="path22"
             style="fill:#000000;fill-opacity:1;fill-rule:nonzero;stroke:none" /></g><g
           transform="translate(323,417.8262)"
           id="g24"><path
             d="M 0,0 -118.623,-118.707 -23.516,-212.968 191.536,0 0,0 z"
             inkscape:connector-curvature="0"
             id="path26"
             style="fill:#ffffff;fill-opacity:1;fill-rule:nonzero;stroke:none" /></g><g
           transform="translate(299.4844,204.8584)"
           id="g28"><path
             d="m 0,0 -95.107,94.261 118.623,118.707 191.536,0 L 0,0 z M 478.994,616.935 308.539,444.368 286.236,466.61 221.086,400.955 c 0,0 -12.49,12.23 -24.482,24.066 -11.987,11.839 -27.975,16.61 -45.833,-0.111 C 42.731,323.761 -140.64,132.841 -146.586,127.611 c -6.764,-5.961 -15.942,-9.529 -23.892,-1.593 -4.282,4.27 -10.046,9.776 -17.646,16.608 -21.708,19.511 -42.911,-8.402 -42.911,-8.402 l -27.513,-27.137 110.003,-109.505 -33.012,-32.596 -51.816,51.013 c -25.457,22.882 -50.322,-9.856 -50.322,-9.856 l -15.295,-14.852 197.81,-196.149 15.534,15.66 c 0,0 34.126,23.323 3.051,56.756 l -45.478,44.773 32.716,32.303 109.944,-109.447 27.716,27.827 c 0,0 29.102,19.883 2.602,48.393 -4.72,5.075 -6.09,5.947 -12.358,12.772 -9.079,9.881 2.358,23.1 2.358,23.1 0,0 287.531,284.525 296.822,296.804 9.291,12.28 12.277,34.315 -3.874,50.714 -16.151,16.4 -20.231,19.849 -20.231,19.849 l 65.15,65.666 -23.064,23 129.286,130.365 0,83.258 z"
             inkscape:connector-curvature="0"
             id="path30"
             style="fill:#000000;fill-opacity:1;fill-rule:nonzero;stroke:none" /></g></g></g></g></svg>